<svg height="512pt" viewBox="-11 0 512 512.00001" width="512pt" xmlns="http://www.w3.org/2000/svg"><path d="m490.027344 251.296875c0 135.316406-109.695313 245.015625-245.011719 245.015625-135.320313 0-245.015625-109.699219-245.015625-245.015625s109.695312-245.011719 245.015625-245.011719c135.316406 0 245.011719 109.695313 245.011719 245.011719zm0 0" fill="#f84e82"/><path d="m327.371094 511.058594-83.566406-50.140625c-2.078126-1.246094-4.679688-1.242188-6.753907.019531l-82.472656 50.039062c-4.355469 2.640626-9.925781-.496093-9.925781-5.589843v-222.976563h192.621094v223.042969c0 5.082031-5.542969 8.21875-9.902344 5.605469zm0 0" fill="#7956ba"/><path d="m175.859375 282.410156h-31.207031v222.972656c0 5.097657 5.570312 8.234376 9.925781 5.589844l21.28125-12.910156v-114.125c6.070313 1.554688 12.855469.515625 18.503906-3.902344 10.351563-8.101562 25.480469-5.089844 31.945313 6.351563 8.222656 14.558593 29.1875 14.558593 37.410156 0 6.464844-11.441407 21.59375-14.449219 31.945312-6.351563 13.167969 10.300782 32.539063 2.277344 34.5625-14.320312.664063-5.445313 3.292969-10.105469 7.046876-13.4375v-69.867188zm0 0" fill="#4b358e"/><path d="m263.71875 10.917969c6.464844 11.441406 21.59375 14.453125 31.945312 6.355469 13.167969-10.304688 32.539063-2.28125 34.5625 14.316406 1.59375 13.042968 14.421876 21.613281 27.082032 18.09375 16.105468-4.480469 30.929687 10.347656 26.453125 26.453125-3.523438 12.664062 5.050781 25.488281 18.09375 27.082031 16.59375 2.023438 24.617187 21.394531 14.316406 34.5625-8.097656 10.351562-5.085937 25.480469 6.355469 31.945312 14.554687 8.21875 14.554687 29.1875 0 37.410157-11.441406 6.460937-14.453125 21.59375-6.355469 31.941406 10.304687 13.167969 2.28125 32.539063-14.316406 34.5625-13.042969 1.59375-21.613281 14.421875-18.09375 27.082031 4.476562 16.105469-10.347657 30.933594-26.453125 26.453125-12.664063-3.519531-25.488282 5.050781-27.082032 18.097657-2.027343 16.59375-21.394531 24.617187-34.5625 14.316406-10.351562-8.101563-25.480468-5.089844-31.945312 6.351562-8.222656 14.558594-29.1875 14.558594-37.410156 0-6.464844-11.441406-21.59375-14.449218-31.945313-6.351562-13.164062 10.300781-32.535156 2.277344-34.5625-14.316406-1.589843-13.046876-14.417969-21.617188-27.078125-18.097657-16.109375 4.480469-30.933594-10.347656-26.453125-26.453125 3.519531-12.660156-5.050781-25.488281-18.097656-27.082031-16.59375-2.023437-24.617187-21.394531-14.316406-34.5625 8.097656-10.347656 5.089843-25.480469-6.355469-31.941406-14.554688-8.222657-14.554688-29.191407 0-37.410157 11.445312-6.464843 14.453125-21.597656 6.355469-31.945312-10.300781-13.167969-2.277344-32.539062 14.316406-34.5625 13.046875-1.59375 21.617187-14.421875 18.097656-27.082031-4.480469-16.105469 10.34375-30.933594 26.453125-26.453125 12.660156 3.519531 25.488282-5.050782 27.078125-18.09375 2.027344-16.597656 21.398438-24.621094 34.5625-14.316406 10.351563 8.097656 25.480469 5.085937 31.945313-6.355469 8.222656-14.558594 29.1875-14.558594 37.410156 0zm0 0" fill="#fdd33a"/><path d="m263.71875 10.917969c6.464844 11.441406 21.59375 14.453125 31.945312 6.355469 13.167969-10.304688 32.539063-2.28125 34.5625 14.316406 1.59375 13.042968 14.421876 21.613281 27.082032 18.09375 16.105468-4.480469 30.929687 10.347656 26.453125 26.453125-3.523438 12.664062 5.050781 25.488281 18.09375 27.082031 16.59375 2.023438 24.617187 21.394531 14.316406 34.5625-8.097656 10.351562-5.085937 25.480469 6.355469 31.945312 14.554687 8.21875 14.554687 29.1875 0 37.410157-11.441406 6.460937-14.453125 21.59375-6.355469 31.941406 10.304687 13.167969 2.28125 32.539063-14.316406 34.5625-13.042969 1.59375-21.613281 14.421875-18.09375 27.082031 4.476562 16.105469-10.347657 30.933594-26.453125 26.453125-12.664063-3.519531-25.488282 5.050781-27.082032 18.097657-2.027343 16.59375-21.394531 24.617187-34.5625 14.316406-10.351562-8.101563-25.480468-5.089844-31.945312 6.351562-8.222656 14.558594-29.1875 14.558594-37.410156 0-6.464844-11.441406-21.59375-14.449218-31.945313-6.351562-13.164062 10.300781-32.535156 2.277344-34.5625-14.316406-1.589843-13.046876-14.417969-21.617188-27.078125-18.097657-16.109375 4.480469-30.933594-10.347656-26.453125-26.453125 3.519531-12.660156-5.050781-25.488281-18.097656-27.082031-16.59375-2.023437-24.617187-21.394531-14.316406-34.5625 8.097656-10.347656 5.089843-25.480469-6.355469-31.941406-14.554688-8.222657-14.554688-29.191407 0-37.410157 11.445312-6.464843 14.453125-21.597656 6.355469-31.945312-10.300781-13.167969-2.277344-32.539062 14.316406-34.5625 13.046875-1.59375 21.617187-14.421875 18.097656-27.082031-4.480469-16.105469 10.34375-30.933594 26.453125-26.453125 12.660156 3.519531 25.488282-5.050782 27.078125-18.09375 2.027344-16.597656 21.398438-24.621094 34.5625-14.316406 10.351563 8.097656 25.480469 5.085937 31.945313-6.355469 8.222656-14.558594 29.1875-14.558594 37.410156 0zm0 0" fill="#fdd33a"/><path d="m371.707031 188.429688c0 69.96875-56.722656 126.691406-126.691406 126.691406-69.972656 0-126.695313-56.722656-126.695313-126.691406 0-69.972657 56.722657-126.691407 126.695313-126.691407 69.96875 0 126.691406 56.71875 126.691406 126.691407zm0 0" fill="#7956ba"/><path d="m103.253906 188.429688c0-71.699219 38.808594-134.328126 96.554688-168.054688-1.902344-.742188-3.738282-1.769531-5.445313-3.101562-13.164062-10.304688-32.535156-2.28125-34.5625 14.316406-1.589843 13.042968-14.417969 21.613281-27.078125 18.09375-16.109375-4.480469-30.933594 10.347656-26.453125 26.453125 3.519531 12.664062-5.050781 25.488281-18.097656 27.082031-16.59375 2.023438-24.617187 21.394531-14.316406 34.5625 8.097656 10.351562 5.089843 25.480469-6.355469 31.945312-14.554688 8.21875-14.554688 29.1875 0 37.410157 11.445312 6.460937 14.453125 21.59375 6.355469 31.941406-10.300781 13.167969-2.277344 32.539063 14.316406 34.5625 13.046875 1.59375 21.617187 14.421875 18.097656 27.082031-4.480469 16.105469 10.34375 30.933594 26.453125 26.453125 12.660156-3.519531 25.488282 5.050781 27.078125 18.097657 2.027344 16.59375 21.398438 24.617187 34.5625 14.316406 1.707031-1.335938 3.542969-2.363282 5.445313-3.105469-57.746094-33.726563-96.554688-96.355469-96.554688-168.054687zm0 0" fill="#f9bd3a"/><path d="m179.65625 188.429688c0-59.394532 40.875-109.234376 96.027344-122.945313-9.824219-2.445313-20.09375-3.746094-30.667969-3.746094-69.972656 0-126.695313 56.71875-126.695313 126.691407 0 69.972656 56.722657 126.691406 126.695313 126.691406 10.574219 0 20.84375-1.300782 30.667969-3.746094-55.152344-13.710938-96.027344-63.550781-96.027344-122.945312zm0 0" fill="#4b358e"/></svg>