<?xml version="1.0"?>
<svg xmlns="http://www.w3.org/2000/svg" xmlns:xlink="http://www.w3.org/1999/xlink" xmlns:svgjs="http://svgjs.com/svgjs" version="1.1" width="512" height="512" x="0" y="0" viewBox="0 0 501 501" style="enable-background:new 0 0 512 512" xml:space="preserve" class=""><g>
<g xmlns="http://www.w3.org/2000/svg">
	<path style="" d="M73.606,425.5C31.557,381.629,5.664,322.151,5.501,256.623C5.164,121.401,115.279,11,250.501,11   C385.81,11,495.5,120.69,495.5,256c0,58.345-22.754,115.554-56.804,157.631c-0.043,0.054-0.087,0.107-0.129,0.16   c-5.407,6.652-15.311,7.283-21.599,1.457C373.266,374.756,314.776,350,250.5,350C180.964,350,118.2,378.973,73.606,425.5z" fill="#b481e8" data-original="#81b6e8" class=""/>
	<path style="" d="M440.178,411.068C395.249,465.96,326.969,501,250.5,501s-144.749-35.04-189.678-89.932   c-33.135-58.353-24.836-133.851,24.916-183.603l63.678-63.678l51.806-51.806l-51.801-40.938   c-5.553-4.389-4.061-13.215,2.645-15.481c7.552-2.552,15.301-4.811,23.221-6.764c5.839-1.439,8.652-8.08,5.581-13.25   c-2.304-3.879-1.369-8.884,2.204-11.639C202.976,8.557,225.115,0,248.44,0c21.494,0,41.98,7.266,60.639,20.418   c6.339,4.469,8.146,13.086,4.185,19.755c-1.73,2.912-0.113,6.654,3.189,7.406c12.157,2.768,23.93,6.252,35.232,10.404   c3.674,1.35,4.474,6.184,1.404,8.611l-3.564,2.816l-51.565,40.752l117.302,117.302   C465.014,277.217,473.313,352.715,440.178,411.068z" fill="#33877c" data-original="#33877c" class=""/>
	<path style="" d="M438.696,413.631c-16.331,18.101-38.422,31.745-65.219,37.591   c-74.938,16.346-156.378-4.611-214.64-62.874l0,0c-23.529-23.529-37.789-52.817-42.779-83.326   c-6.318-38.628,6.858-77.895,34.535-105.572l18.365-18.365l64.169-64.169l-35.223-45.873c-5.553-4.389-4.061-13.215,2.645-15.481   c7.552-2.552,15.301-4.811,23.221-6.764c5.839-1.439,8.652-8.08,5.581-13.25c-2.304-3.879-1.369-8.884,2.204-11.639   c12.875-9.93,26.688-16.995,41.15-20.763c12.69,3.312,24.88,9.171,36.374,17.273c6.339,4.469,8.146,13.086,4.185,19.755   c-1.73,2.912-0.113,6.654,3.189,7.406c12.157,2.768,23.93,6.252,35.232,10.404c3.674,1.35,4.474,6.184,1.404,8.611l-3.564,2.816   l-51.565,40.752l117.302,117.302C465.745,277.948,473.554,354.942,438.696,413.631z" fill="#409a8f" data-original="#409a8f" class=""/>
	<path style="" d="M370.5,350c0,66.274-53.726,120-120,120s-120-53.726-120-120s53.726-120,120-120   S370.5,283.726,370.5,350z" fill="#2c7b73" data-original="#2c7b73"/>
	<path style="" d="M305.5,140h-110c-8.284,0-15-6.716-15-15v0c0-8.284,6.716-15,15-15h110c8.284,0,15,6.716,15,15v0   C320.5,133.284,313.784,140,305.5,140z" fill="#ee9500" data-original="#ee9500"/>
	<path style="" d="M320.5,125L320.5,125c0,8.284-6.716,15-15,15l0,0c-6.075,0-11,4.925-11,11v24   c0,8.525-7.111,15.388-15.725,14.983c-8.068-0.38-14.275-7.33-14.275-15.407V151c0-6.075-4.925-11-11-11h-24   c-8.284,0-15-6.716-15-15l0,0c0-8.284,6.716-15,15-15h76C313.784,110,320.5,116.716,320.5,125z" fill="#ffb23c" data-original="#ffb23c"/>
	<path style="" d="M276.906,334.616h-11.023v-26.975h32.203c4.248,0,7.692-3.444,7.692-7.692v-15.384   c0-4.248-3.444-7.692-7.692-7.692h-32.203v-4.903c0-4.248-3.444-7.692-7.692-7.692h-15.384c-4.248,0-7.692,3.444-7.692,7.692v4.903   h-11.023c-24.848,0-44.979,20.583-44.236,45.595c0.715,24.071,21.096,42.916,45.177,42.916h10.081v26.975h-32.203   c-4.248,0-7.692,3.444-7.692,7.692v15.384c0,4.248,3.444,7.692,7.692,7.692h32.203v4.903c0,4.248,3.444,7.692,7.692,7.692h15.384   c4.248,0,7.692-3.444,7.692-7.692v-4.903h10.082c24.081,0,44.462-18.845,45.177-42.915   C321.885,355.2,301.754,334.616,276.906,334.616z M224.094,334.616c-7.742,0-13.983-6.558-13.457-14.411   c0.479-7.161,6.756-12.564,13.933-12.564h10.547v26.975H224.094z M290.364,379.795c-0.479,7.161-6.756,12.564-13.933,12.564   h-10.547v-26.975h11.023C284.648,365.384,290.889,371.942,290.364,379.795z" fill="#ffc981" data-original="#ffc981" class=""/>
	<path style="" d="M276.906,334.616h-11.023v-26.975h32.203c4.248,0,7.692-3.444,7.692-7.692v-15.384   c0-4.248-3.444-7.692-7.692-7.692h-32.203v-4.903c0-4.248-3.444-7.692-7.692-7.692h-15.384c-4.248,0-7.692,3.444-7.692,7.692v4.903   h-11.023c-6.667,0-12.989,1.494-18.665,4.146c-0.609,4.575-0.929,9.24-0.929,13.981c0,27.079,10.253,51.762,27.086,70.384h3.531   v3.721c8.833,8.866,19.241,16.159,30.768,21.43v-25.152h11.023c7.742,0,13.983,6.558,13.457,14.411   c-0.479,7.161-6.756,12.564-13.933,12.564h-6.307c12.161,4.923,25.45,7.641,39.376,7.641c2.104,0,4.192-0.069,6.266-0.191   c3.229-5.845,5.165-12.49,5.376-19.597C321.885,355.2,301.754,334.616,276.906,334.616z M235.116,334.616h-11.023   c-7.742,0-13.983-6.558-13.457-14.411c0.479-7.161,6.756-12.564,13.933-12.564h10.547V334.616z" fill="#ffd69e" data-original="#ffd69e"/>
</g>















</g></svg>
