<?xml version="1.0" encoding="utf-8"?>
<!-- Generator: Adobe Illustrator 24.3.0, SVG Export Plug-In . SVG Version: 6.00 Build 0)  -->
<svg version="1.1" id="Layer_1" xmlns="http://www.w3.org/2000/svg" xmlns:xlink="http://www.w3.org/1999/xlink" x="0px" y="0px"
	 viewBox="0 0 100 86.6" style="enable-background:new 0 0 100 86.6;" xml:space="preserve">
<style type="text/css">
	.st0{fill:#FBBB46;}
	.st1{fill:#FFFFFF;}
</style>
<polygon class="st0" points="75,0 25,0 0,43.3 25,86.6 75,86.6 100,43.3 "/>
<g>
	<g>
		<path class="st1" d="M52.5,39.8V27.4c2.7,0.4,5.2,1.5,7.3,3.2c0.4,0.3,0.9,0.5,1.4,0.5c1.7,0,3-1.3,3-3c0-0.7-0.3-1.4-0.8-1.9
			c-3.1-2.7-7-4.2-11.1-4.5v-4.2c0-1.2-1-2.2-2.2-2.2c0,0,0,0-0.1,0c-1.2,0-2.2,0.9-2.2,2.2v4c-7.9,0.6-13.4,5.5-13.4,12
			c0,8,6.8,10.2,13.4,12v14.1c-3.4-0.5-6.7-1.9-9.4-4.1c-0.5-0.4-1.1-0.6-1.8-0.6C35.2,55,34,56.4,34,58c0,0.7,0.3,1.4,0.8,1.9
			c3.6,3.3,8.3,5.2,13.2,5.3v3.9c0,0,0,0,0,0.1c0.1,1.2,1.1,2.1,2.3,2.1c1.2,0,2.2-1,2.2-2.2v-4C62.1,64.5,66,58.7,66,52.4
			C66,44.1,59,41.6,52.5,39.8z M48,38.7c-3.8-1.1-6.9-2.3-6.9-5.6s2.7-5.7,6.9-6V38.7z M52.5,59.7V46.9c4,1.1,7.1,2.6,7.1,6.4
			C59.5,55.9,57.7,59.1,52.5,59.7z"/>
	</g>
</g>
</svg>
