<svg id="Capa_1" enable-background="new 0 0 512 512" height="512" viewBox="0 0 512 512" width="512" xmlns="http://www.w3.org/2000/svg"><path d="m512 256c0 94.23-50.92 176.58-126.75 221.01-16.41 9.62-33.98 17.47-52.47 23.27-9.94 3.12-20.14 5.65-30.55 7.55-7.19 1.32-14.5 2.33-21.89 3.02-8.01.76-16.13 1.15-24.34 1.15s-16.33-.39-24.34-1.15c-7.39-.69-14.7-1.7-21.89-3.02-10.01-1.82-19.82-4.23-29.38-7.19-16.98-5.24-33.21-12.2-48.48-20.68-78.67-43.68-131.91-127.61-131.91-223.96 0-141.38 114.62-256 256-256s256 114.62 256 256z" fill="#3d322c"/><path d="m402.97 420.21-31.54 27.45c-5.8 5.04-5.57 14.11.47 18.86l13.35 10.49c-25.23 14.8-53.23 25.39-83.02 30.82-7.19 1.32-14.5 2.33-21.89 3.02-8.01.76-16.13 1.15-24.34 1.15s-16.33-.39-24.34-1.15c-7.39-.69-14.7-1.7-21.89-3.02-27.78-5.07-53.99-14.61-77.86-27.87l8.66-7.53c5.8-5.04 5.57-14.12-.47-18.86l-32.92-25.86c-8.72-6.85-4.57-20.84 6.48-21.82l41.69-3.7c7.64-.68 12.78-8.15 10.69-15.53l-11.42-40.27c-3.02-10.67 8.56-19.54 18.07-13.84l35.9 21.52c6.59 3.95 15.13.93 17.78-6.28l14.44-39.28c3.82-10.41 18.41-10.78 22.75-.57l16.39 38.52c3.01 7.07 11.71 9.65 18.08 5.37l34.72-23.3c9.22-6.19 21.24 2.1 18.75 12.91l-9.39 40.77c-1.72 7.48 3.8 14.69 11.48 14.98l41.8 1.55c11.09.42 15.95 14.19 7.58 21.47z" fill="#e6b700"/><path d="m354.83 470.04-21.29 18.53c-3.54 3.07-3.75 8.35-.76 11.71-9.94 3.12-20.14 5.65-30.55 7.55-7.19 1.32-14.5 2.33-21.89 3.02-8.01.76-16.13 1.15-24.34 1.15s-16.33-.39-24.34-1.15c-7.39-.69-14.7-1.7-21.89-3.02-10.01-1.82-19.82-4.23-29.38-7.19.57-2.92-.44-6.07-3-8.08l-22.22-17.46c-5.89-4.62-3.09-14.06 4.37-14.72l28.14-2.5c5.16-.46 8.63-5.5 7.22-10.48l-7.71-27.19c-2.04-7.2 5.78-13.19 12.2-9.34l24.23 14.53c4.45 2.66 10.21.62 12-4.24l9.75-26.52c2.58-7.02 12.43-7.27 15.36-.38l11.06 26c2.03 4.77 7.9 6.51 12.2 3.62l23.44-15.72c6.22-4.18 14.34 1.41 12.66 8.71l-6.34 27.52c-1.16 5.05 2.56 9.92 7.75 10.11l28.21 1.05c7.49.28 10.77 9.58 5.12 14.49z" fill="#fbd307"/><path d="m367.85 273.62s-57 87.01-65.62 234.21c-14.99 2.74-30.44 4.17-46.23 4.17s-31.24-1.43-46.23-4.17c-8.62-147.2-65.62-234.21-65.62-234.21z" fill="#fa2a3b"/><path d="m315.1 273.62s-30.53 88.19-34.76 237.23c-8.01.76-16.13 1.15-24.34 1.15s-16.33-.39-24.34-1.15c-4.23-149.04-34.76-237.23-34.76-237.23z" fill="#fb636f"/><path d="m454.597 152.899c1.94-6.443 2.994-13.281 2.994-20.358 0-38.943-31.567-70.51-70.498-70.51-7.317 0-14.382 1.114-21.016 3.186-2.707-36.465-33.124-65.217-70.283-65.217-14.766 0-28.465 4.55-39.794 12.31-11.329-7.76-25.028-12.31-39.794-12.31-37.159 0-67.576 28.752-70.282 65.217-6.634-2.072-13.7-3.186-21.016-3.186-38.931 0-70.498 31.567-70.498 70.51 0 7.077 1.054 13.915 2.994 20.358-28.836 8.849-49.817 35.686-49.817 67.42 0 31.375 20.514 57.972 48.859 67.109 6.826 2.203 14.095 3.389 21.651 3.389 11.436 0 22.226-2.731 31.77-7.569 8.502 29.387 35.59 50.883 67.72 50.883 23.663 0 44.584-11.676 57.373-29.555 6.586 2.299 13.664 3.569 21.04 3.569 7.377 0 14.454-1.269 21.04-3.569 12.789 17.879 33.71 29.555 57.373 29.555 32.129 0 59.217-21.496 67.72-50.883 9.544 4.838 20.334 7.569 31.77 7.569 7.556 0 14.825-1.186 21.651-3.389 28.345-9.137 48.859-35.734 48.859-67.109 0-31.734-20.98-58.57-49.816-67.42z" fill="#ded0cb"/><path d="m417.39 216.463c1.834-6.084 2.7-12.571 2.376-19.331-1.358-28.307-23.647-51.68-51.868-54.273-7.854-.722-15.431.163-22.443 2.34-2.191-29.627-26.92-53.002-57.11-53.002-12.011 0-23.136 3.7-32.345 10.011-9.209-6.311-20.334-10.011-32.345-10.011-30.189 0-54.918 23.375-57.11 53.002-7.012-2.176-14.589-3.062-22.443-2.34-28.221 2.594-50.51 25.966-51.868 54.273-.324 6.759.542 13.246 2.376 19.331-23.435 7.185-40.488 28.992-40.488 54.787v.168c.029 10.005 7.881 18.28 17.849 19.137 2.018.174 4.061.262 6.125.262 11.436 0 22.226-2.731 31.77-7.569 8.502 29.387 35.59 50.883 67.72 50.883 23.663 0 44.584-11.676 57.373-29.555 6.586 2.299 13.664 3.569 21.04 3.569 7.377 0 14.454-1.269 21.04-3.569 12.789 17.879 33.71 29.555 57.373 29.555 32.129 0 59.217-21.496 67.72-50.883 9.544 4.838 20.334 7.569 31.77 7.569 2.064 0 4.107-.089 6.125-.262 9.968-.857 17.82-9.133 17.849-19.137 0-.056 0-.112 0-.168.002-25.795-17.051-47.602-40.486-54.787z" fill="#f7f0f0"/></svg>