<svg id="Layer_1" enable-background="new 0 0 512 512" height="512" viewBox="0 0 512 512" width="512" xmlns="http://www.w3.org/2000/svg"><g><circle cx="256" cy="281.188" fill="#ffcd38" r="230.812"/><path d="m190.864 241.313-51.337 67.147c-6.501 8.503-9.553 19.147-8.545 29.802l7.915 83.675c.301 3.181 4.728 3.701 5.758.677l11.866-34.839c2.307-6.773 7.332-12.279 13.867-15.193l37.108-16.548z" fill="#4796cd"/><path d="m193.362 350.216-16.885-69.191c-1.124-4.605-4.192-8.242-8.112-10.283l22.5-29.429 16.632 114.721-16.971 7.567c2.813-3.685 4.014-8.557 2.836-13.385z" fill="#0f7ebc"/><path d="m190.864 241.313-51.337 67.147c-6.501 8.503-9.553 19.147-8.545 29.802l1.365 14.435 65.666-62.072z" fill="#5bb5e7"/><path d="m168.364 270.742 22.5-29.429 7.149 49.313-15.597 14.743-5.941-24.343c-1.122-4.606-4.19-8.243-8.111-10.284z" fill="#4796cd"/><path d="m302.273 410.757c-11.192 0-81.28 0-92.547 0-9.967 37.947-32.012 63.756-50.933 79.817 29.546 13.74 62.477 21.426 97.207 21.426s67.661-7.685 97.206-21.425c-18.92-16.062-40.966-41.871-50.933-79.818z" fill="#fcf4de"/><path d="m281.611 410.757c-16.3 0-34.922 0-51.222 0-7.312 50.298-26.37 79.279-37.576 92.487 20.081 5.703 41.277 8.756 63.187 8.756s43.106-3.053 63.187-8.756c-11.206-13.208-30.264-42.188-37.576-92.487z" fill="#ffefbe"/><path d="m264.737 410.757c-6.112 0-11.363 0-17.475 0-3.196 64.439-12.968 93.885-15.259 100.006 7.888.815 15.893 1.237 23.997 1.237s16.108-.422 23.997-1.237c-2.291-6.121-12.063-35.566-15.26-100.006z" fill="#fcd981"/><path d="m302.273 398.828-5.253-23.943c-9.952 0-72.052 0-82.04 0l-5.254 23.943z" fill="#474979"/><path d="m214.98 374.885-5.254 23.943h21.167l5.254-23.943c-9.987 0-18.075 0-21.167 0z" fill="#293059"/><path d="m256 55.234c-3.742 0-6.776-3.033-6.776-6.776v-41.682c0-3.743 3.034-6.776 6.776-6.776s6.776 3.033 6.776 6.776v41.682c0 3.743-3.034 6.776-6.776 6.776z" fill="#de3648"/><path d="m321.136 241.313 51.337 67.147c6.501 8.503 9.553 19.147 8.545 29.802l-7.915 83.675c-.301 3.181-4.728 3.701-5.758.677l-11.865-34.839c-2.307-6.773-7.332-12.279-13.867-15.193l-37.108-16.548z" fill="#4796cd"/><path d="m318.638 350.216 16.885-69.191c1.124-4.605 4.192-8.242 8.112-10.283l-22.5-29.429-16.632 114.721 16.971 7.567c-2.813-3.685-4.014-8.557-2.836-13.385z" fill="#0f7ebc"/><path d="m321.136 241.313 51.337 67.147c6.501 8.503 9.553 19.147 8.545 29.802l-1.366 14.435-65.665-62.072z" fill="#5bb5e7"/><path d="m343.636 270.742-22.5-29.429-7.149 49.313 15.597 14.743 5.941-24.343c1.122-4.606 4.19-8.243 8.111-10.284z" fill="#4796cd"/><path d="m194.163 410.758c0 7.658 6.208 13.866 13.866 13.866h95.942c7.658 0 13.866-6.208 13.866-13.866s-6.208-13.866-13.866-13.866h-95.942c-7.659-.001-13.866 6.207-13.866 13.866z" fill="#64679c"/><path d="m219.099 410.758c0-7.659 6.208-13.866 13.866-13.866h-24.937c-7.659 0-13.867 6.208-13.867 13.866s6.208 13.866 13.867 13.866h24.937c-7.658 0-13.866-6.208-13.866-13.866z" fill="#474979"/><path d="m275.991 32.744c-11.003-11.132-28.979-11.132-39.981 0-42.398 42.897-62.23 103.19-53.576 162.879l25.425 175.366c.513 3.539 3.546 6.164 7.122 6.164h82.04c3.576 0 6.609-2.625 7.122-6.164l25.425-175.366c8.653-59.69-11.18-119.983-53.577-162.879z" fill="#cce6ed"/><path d="m230.005 370.988-20.872-175.365c-7.104-59.689 9.177-119.982 43.984-162.879 2.957-3.645 6.53-6.088 10.312-7.346-9.466-2.585-20.019-.142-27.42 7.346-42.397 42.896-62.23 103.19-53.576 162.879l25.425 175.365c.513 3.539 3.546 6.164 7.122 6.164h20.872c-2.935 0-5.425-2.625-5.847-6.164z" fill="#81c5e9"/><path d="m202.346 332.968 5.512 38.02c.513 3.539 3.546 6.164 7.122 6.164h82.04c3.576 0 6.609-2.625 7.122-6.164l5.512-38.02z" fill="#64679c"/><path d="m207.858 370.988c.513 3.539 3.546 6.164 7.122 6.164h20.872c-2.936 0-5.426-2.625-5.847-6.164l-4.525-38.019h-23.134z" fill="#474979"/><ellipse cx="256" cy="158.358" fill="#ffac00" rx="48.741" ry="48.74" transform="matrix(.337 -.942 .942 .337 20.612 345.991)"/><path d="m234.211 170.939c-11.426-19.791-7.39-44.258 8.352-59.435-3.74 1.075-7.411 2.611-10.933 4.644-23.312 13.459-31.3 43.268-17.84 66.581 15.779 27.33 53.162 32.781 76.069 10.694-21.014 6.044-44.222-2.694-55.648-22.484z" fill="#ff8500"/><path d="m279.58 169.154c0-9.43-7.473-17.127-16.804-17.533v-8.077h6.126c3.742 0 6.776-3.034 6.776-6.776s-3.034-6.776-6.776-6.776h-6.126v-1.418c0-3.743-3.034-6.776-6.776-6.776s-6.776 3.034-6.776 6.776v1.457c-9.331.406-16.804 8.103-16.804 17.533s7.473 17.126 16.804 17.533v8.077h-6.126c-3.742 0-6.776 3.033-6.776 6.776s3.034 6.776 6.776 6.776h6.126v1.418c0 3.743 3.034 6.776 6.776 6.776s6.776-3.033 6.776-6.776v-1.457c9.332-.406 16.804-8.103 16.804-17.533zm-33.608-21.59c0-1.953 1.402-3.582 3.251-3.941v7.883c-1.849-.361-3.251-1.989-3.251-3.942zm16.804 25.531v-7.883c1.85.359 3.252 1.988 3.252 3.941 0 1.954-1.402 3.583-3.252 3.942z" fill="#ffcd38"/><path d="m256 424.624c-7.658 0-13.866-6.208-13.866-13.866v-160.458c0-7.658 6.208-13.866 13.866-13.866s13.866 6.208 13.866 13.866v160.457c0 7.659-6.208 13.867-13.866 13.867z" fill="#4796cd"/><path d="m256 236.434c-7.658 0-13.866 6.208-13.866 13.866v39.255c0 7.658 6.208 13.866 13.866 13.866s13.866-6.208 13.866-13.866v-39.255c0-7.658-6.208-13.866-13.866-13.866z" fill="#5bb5e7"/><path d="m297.132 58.185c-6.254-8.997-13.31-17.518-21.142-25.442-11.002-11.132-28.979-11.132-39.981 0-7.831 7.924-14.887 16.444-21.142 25.442 25.506 6.133 56.047 6.304 82.265 0z" fill="#fe505f"/><path d="m258.04 24.476c-.014-.001-.029-.002-.043-.003-13.969-.993-21.873 8.197-21.987 8.27-8.417 8.806-13.792 14.855-21.142 25.442 6.006 1.444 12.381 2.575 19.027 3.365 5.585-10.241 11.998-19.903 19.222-28.807 2.957-3.645 6.53-6.088 10.312-7.346-1.768-.482-3.573-.789-5.389-.921z" fill="#de3648"/><g fill="#ffac00"><path d="m381.206 276.772c0 7.401 6.031 13.323 13.323 13.323h45.306c7.356 0 13.322 5.966 13.322 13.322 0 7.301-5.903 13.322-13.323 13.322h-14.5c-7.356 0-13.322 5.966-13.322 13.322 0 7.372 5.989 13.333 13.323 13.333h52.987c5.526-19.791 8.49-40.651 8.49-62.206 0-5.968-.227-11.884-.672-17.738h-91.613c-7.355-.001-13.321 5.965-13.321 13.322z"/><path d="m157.647 197.511h-80.418c-7.351 0-13.322-5.961-13.322-13.323 0-7.356 5.966-13.322 13.322-13.322h28.16c7.292 0 13.323-5.922 13.323-13.323 0-7.357-5.966-13.322-13.322-13.322h-35.174c-27.605 37.381-44.19 83.387-44.981 133.234h100.605c7.334 0 13.323-5.961 13.323-13.333 0-7.356-5.966-13.322-13.322-13.322h-21.5c-7.42 0-13.323-6.022-13.323-13.322 0-7.356 5.966-13.322 13.322-13.322h53.306c7.292 0 13.323-5.921 13.323-13.323 0-7.356-5.966-13.322-13.322-13.322z"/><path d="m394.529 207.346h19.854c7.358 0 13.323 5.965 13.323 13.323s-5.965 13.323-13.323 13.323h-19.854c-7.358 0-13.323-5.965-13.323-13.323s5.965-13.323 13.323-13.323z"/></g></g></svg>