<svg id="Capa_1" enable-background="new 0 0 512 512" height="512" viewBox="0 0 512 512" width="512" xmlns="http://www.w3.org/2000/svg"><g><path d="m1.584 284.635c-1.038-9.326-1.575-18.804-1.584-28.406-.123-141.179 114.888-256.266 256.068-256.229 141.354.037 255.932 114.638 255.932 256 0 5.496-.173 10.951-.515 16.361-.98 15.547-13.911 27.639-29.489 27.639h-463.115c-8.825 0-16.32-6.593-17.297-15.365z" fill="#51489a"/><path d="m511.615 270.161c-5.767 105.77-75.739 194.45-171.615 227.739h-6.103c-5.268 0-10.301 2.185-13.897 6.035-20.456 5.265-41.901 8.065-64 8.065-22.821 0-44.944-2.986-66-8.589-5.515-4.05-12.179-6.234-19.022-6.234h-1.031c-90.65-32.347-157.715-114.352-168.442-213.262 5.314-2.654 10.894-4.853 16.691-6.547-.411-2.955-.624-5.973-.624-9.041 0-35.898 29.102-65 65-65s65 29.102 65 65c0 18.165-7.451 34.589-19.464 46.383 6.925 9.455 12.245 20.159 15.559 31.711 7.966-2.02 16.31-3.094 24.905-3.094 34.458 0 64.886 17.256 83.113 43.598 17.55-14.728 40.183-23.598 64.887-23.598 3.051 0 6.071.135 9.054.4 14.301-20.54 36.035-35.517 61.306-41.034-17.684-11.616-29.36-31.628-29.36-54.366 0-35.898 29.102-65 65-65 34.276 0 62.355 26.531 64.823 60.177 8.654.635 16.837 2.964 24.22 6.657z" fill="#5f55af"/><path d="m332.5 410h-5c-4.142 0-7.5 3.358-7.5 7.5v5.5h-130v-5.5c0-4.142-3.358-7.5-7.5-7.5h-5c-4.142 0-7.5 3.358-7.5 7.5v79.696c6.548 2.335 13.219 4.411 20 6.215v-13.411h130v13.935c6.779-1.745 13.45-3.761 20-6.035v-80.4c0-4.142-3.358-7.5-7.5-7.5zm-142.5 60v-27h130v27z" fill="#958fca"/><path d="m80.144 162.935-8.485-8.485c-1.562-1.562-1.562-4.095 0-5.657l8.485-8.485c1.562-1.562 4.095-1.562 5.657 0l8.485 8.485c1.562 1.562 1.562 4.095 0 5.657l-8.485 8.485c-1.562 1.562-4.095 1.562-5.657 0zm332.684-65.763 8.485-8.485c1.562-1.562 1.562-4.095 0-5.657l-8.485-8.485c-1.562-1.562-4.095-1.562-5.657 0l-8.485 8.485c-1.562 1.562-1.562 4.095 0 5.657l8.485 8.485c1.563 1.562 4.095 1.562 5.657 0z" fill="#958fca"/><path d="m451 282.667v70c0 13.807-11.193 25-25 25h-80c-13.807 0-25-11.193-25-25v-150c0-13.807 11.193-25 25-25 57.99 0 105 47.01 105 105zm-285-105c-57.99 0-105 47.01-105 105v70c0 13.807 11.193 25 25 25h80c13.807 0 25-11.193 25-25v-150c0-13.808-11.193-25-25-25z" fill="#ea552d"/><path d="m96.468 203.987v173.68h-10.468c-13.807 0-25-11.193-25-25v-70c0-31.323 13.715-59.442 35.468-78.68zm249.532-26.32c-13.807 0-25 11.193-25 25v150c0 13.807 11.193 25 25 25h59.681v-181.402c-16.947-11.728-37.512-18.598-59.681-18.598z" fill="#d1462a"/><path d="m206 375v40c0 13.807-11.193 25-25 25s-25-11.193-25-25v-40c0-13.807 11.193-25 25-25s25 11.193 25 25zm125-25c-13.807 0-25 11.193-25 25v40c0 13.807 11.193 25 25 25s25-11.193 25-25v-40c0-13.807-11.193-25-25-25z" fill="#f76937"/><path d="m376.4 238.215v141.785h-240.8v-141.785h.061c1.309-70.126 23.577-134.515 60.109-185.711 29.514-41.36 90.944-41.36 120.458 0 36.533 51.196 58.801 115.585 60.109 185.711z" fill="#f76937"/><path d="m376.4 238.215v146.113h-156.4v-172.232h.061c.846-53.671 10.446-104.503 26.993-150.114 1.257-3.465 58.898-24.145 70.605-7.457 35.683 50.864 57.388 114.483 58.679 183.689h.062z" fill="#ff7c48"/><path d="m317.659 54.525c-19.749 4.884-40.401 7.475-61.659 7.475s-41.91-2.591-61.659-7.475c11.707-16.688 24.919-32.004 39.409-45.693 12.465-11.776 32.036-11.776 44.501 0 14.489 13.69 27.701 29.005 39.408 45.693zm64.341 329.802c0 5.523-4.477 10-10 10h-232c-5.523 0-10-4.477-10-10s4.477-10 10-10h232c5.523 0 10 4.477 10 10z" fill="#eac23f"/><path d="m247.103 61.848c7.306-20.117 15.964-39.218 25.818-57.097 1.88 1.151 3.668 2.511 5.329 4.081 14.49 13.689 27.702 29.005 39.409 45.693-19.749 4.884-40.401 7.475-61.659 7.475-2.978 0-5.943-.051-8.897-.152zm134.897 322.479c0-5.523-4.477-10-10-10h-154c-5.523 0-10 4.477-10 10s4.477 10 10 10h154c5.523 0 10-4.477 10-10z" fill="#fff04a"/><path d="m362.443 255.021c-1.141 6.823-2.924 13.428-5.282 19.754-7.965-2.277-16.755 1.042-21.085 8.541-4.326 7.492-2.812 16.753 3.128 22.514-4.353 5.262-9.196 10.104-14.458 14.458-5.761-5.939-15.021-7.453-22.514-3.127-7.5 4.33-10.818 13.12-8.541 21.085-6.326 2.358-12.931 4.14-19.754 5.282-2.015-8.031-9.281-13.979-17.937-13.979s-15.922 5.948-17.937 13.979c-6.823-1.142-13.428-2.924-19.754-5.282 2.277-7.966-1.041-16.755-8.541-21.085-7.492-4.325-16.753-2.812-22.514 3.127-5.263-4.353-10.105-9.195-14.458-14.458 5.94-5.761 7.453-15.021 3.128-22.514-4.33-7.5-13.12-10.818-21.085-8.541-2.358-6.325-4.14-12.931-5.281-19.754 8.031-2.014 13.979-9.281 13.979-17.937s-5.948-15.922-13.979-17.937c1.141-6.823 2.924-13.429 5.281-19.754 7.966 2.277 16.755-1.042 21.085-8.541 4.326-7.492 2.812-16.752-3.128-22.514 4.353-5.263 9.195-10.105 14.458-14.458 5.761 5.939 15.022 7.453 22.514 3.127 7.5-4.33 10.818-13.12 8.541-21.085 6.326-2.358 12.931-4.141 19.754-5.282 2.015 8.031 9.281 13.979 17.937 13.979s15.922-5.948 17.937-13.979c6.823 1.141 13.428 2.924 19.754 5.282-2.277 7.965 1.041 16.755 8.541 21.085 7.492 4.326 16.753 2.812 22.514-3.127 5.262 4.353 10.105 9.196 14.458 14.458-5.94 5.761-7.453 15.022-3.128 22.514 4.33 7.5 13.12 10.818 21.085 8.541 2.358 6.325 4.14 12.931 5.282 19.754-8.031 2.014-13.979 9.281-13.979 17.937s5.947 15.922 13.979 17.937z" fill="#c8e2fd"/><path d="m285.3 235.698c0 16.406-13.3 29.706-29.706 29.706s-29.706-13.3-29.706-29.706 13.3-29.706 29.706-29.706 29.706 13.3 29.706 29.706z" fill="#453d83"/><path d="m378.903 108.426c-.444 2.656-1.138 5.228-2.056 7.691-3.101-.886-6.523.406-8.209 3.325-1.684 2.917-1.095 6.522 1.218 8.766-1.695 2.049-3.58 3.934-5.629 5.629-2.243-2.313-5.848-2.902-8.766-1.218-2.92 1.686-4.212 5.108-3.325 8.209-2.463.918-5.035 1.612-7.691 2.056-.784-3.127-3.613-5.443-6.984-5.443s-6.199 2.316-6.984 5.443c-2.656-.444-5.228-1.138-7.691-2.056.886-3.101-.405-6.524-3.325-8.209-2.917-1.684-6.522-1.095-8.766 1.218-2.049-1.695-3.934-3.58-5.629-5.629 2.313-2.243 2.902-5.849 1.218-8.766-1.686-2.92-5.108-4.212-8.209-3.325-.918-2.463-1.612-5.035-2.056-7.691 3.127-.784 5.443-3.613 5.443-6.984s-2.316-6.199-5.443-6.984c.444-2.656 1.138-5.228 2.056-7.691 3.101.886 6.524-.406 8.209-3.325 1.684-2.917 1.095-6.522-1.218-8.766 1.695-2.049 3.58-3.934 5.629-5.629 2.243 2.313 5.849 2.902 8.766 1.218 2.92-1.686 4.212-5.108 3.325-8.209 2.463-.918 5.035-1.612 7.691-2.056.784 3.127 3.613 5.443 6.984 5.443s6.199-2.316 6.984-5.443c2.656.444 5.228 1.138 7.691 2.056-.886 3.101.405 6.523 3.325 8.209 2.917 1.684 6.523 1.095 8.766-1.218 2.049 1.695 3.934 3.58 5.629 5.629-2.313 2.243-2.902 5.849-1.218 8.766 1.686 2.92 5.108 4.212 8.209 3.325.918 2.463 1.612 5.035 2.056 7.691-3.127.784-5.443 3.613-5.443 6.984s2.316 6.2 5.443 6.984z" fill="#a7d0fc"/><path d="m357.46 101.443c0 11.046-8.954 20-20 20s-20-8.954-20-20 8.954-20 20-20 20 8.954 20 20z" fill="#f76937"/><path d="m187.897 331.926-49.497 49.497c-5.858 5.858-15.355 5.858-21.213 0l-7.071-7.071c-5.858-5.858-5.858-15.355 0-21.213l49.497-49.497c5.858-5.858 15.355-5.858 21.213 0l7.071 7.071c5.858 5.858 5.858 15.355 0 21.213z" fill="#1380e2"/><path d="m304.832 282.873c-21.634 21.634-54.218 25.643-79.911 12.028l-33.15 33.15c-7.668 7.668-20.162 8.237-28.098.845-8.332-7.759-8.507-20.809-.525-28.791l33.489-33.489c-13.615-25.693-9.605-58.277 12.029-79.911 19.325-19.325 47.388-24.587 71.472-15.785 2.282.834 4.345 2.176 6.079 3.877 1.953 1.953 1.953 5.118 0 7.071l-23.449 23.449c-.839.839-1.949 1.352-3.132 1.448l-1.361.11c-6.301.511-12.214 3.245-16.684 7.715-9.477 9.477-10.089 25.563-.859 35.281 9.719 10.233 25.898 10.391 35.816.473l.329-.329c4.47-4.47 7.205-10.383 7.715-16.684l.121-1.49c.096-1.183.609-2.293 1.448-3.131l23.449-23.449c1.953-1.953 5.118-1.953 7.071 0 1.715 1.715 3.067 3.77 3.903 6.048 8.848 24.105 3.598 52.215-15.752 71.564z" fill="#55a4f9"/><path d="m152.34 381.221-91.924 91.924c-5.858 5.858-15.355 5.858-21.213 0l-20.809-20.809c-5.858-5.858-5.858-15.355 0-21.213l91.924-91.924c5.858-5.858 15.355-5.858 21.213 0l20.809 20.809c5.857 5.858 5.857 15.356 0 21.213z" fill="#eac23f"/><path d="m152.34 381.221-91.924 91.924c-5.858 5.858-15.355 5.858-21.213 0l-4.041-4.041c-5.858-5.858-5.858-15.355 0-21.213l91.924-91.924c5.858-5.858 15.355-5.858 21.213 0l4.041 4.041c5.857 5.858 5.857 15.356 0 21.213z" fill="#fff04a"/><path d="m167.391 382.131c-2.929 2.929-7.678 2.929-10.607 0l-47.376-47.376c-2.929-2.929-2.929-7.678 0-10.607s7.678-2.929 10.607 0l47.376 47.376c2.929 2.929 2.929 7.678 0 10.607z" fill="#fff36c"/><path d="m407.505 174.568-4.95-4.95c-1.562-1.562-1.562-4.095 0-5.657l4.95-4.95c1.562-1.562 4.095-1.562 5.657 0l4.95 4.95c1.562 1.562 1.562 4.095 0 5.657l-4.95 4.95c-1.562 1.562-4.095 1.562-5.657 0z" fill="#eac23f"/><path d="m117.172 85.778-4.95-4.95c-1.562-1.562-1.562-4.095 0-5.657l4.95-4.95c1.562-1.562 4.095-1.562 5.657 0l4.95 4.95c1.562 1.562 1.562 4.095 0 5.657l-4.95 4.95c-1.563 1.562-4.095 1.562-5.657 0z" fill="#fff5f5"/><path d="m430.308 138.42-4.95-4.95c-1.562-1.562-1.562-4.095 0-5.657l4.95-4.95c1.562-1.562 4.095-1.562 5.657 0l4.95 4.95c1.562 1.562 1.562 4.095 0 5.657l-4.95 4.95c-1.562 1.562-4.095 1.562-5.657 0z" fill="#fff36c"/></g></svg>