<?xml version="1.0" encoding="utf-8"?>
<!-- Generator: Adobe Illustrator 24.3.0, SVG Export Plug-In . SVG Version: 6.00 Build 0)  -->
<svg version="1.1" id="Capa_1" xmlns="http://www.w3.org/2000/svg" xmlns:xlink="http://www.w3.org/1999/xlink" x="0px" y="0px"
	 viewBox="0 0 512 512" style="enable-background:new 0 0 512 512;" xml:space="preserve">
<style type="text/css">
	.st0{fill:#51489A;}
	.st1{fill:#5F55AF;}
	.st2{fill:#958FCA;}
	.st3{fill:#2DAA65;}
	.st4{fill:#148C68;}
	.st5{fill:#49C17D;}
	.st6{fill:#5DDB8F;}
	.st7{fill:#EAC23F;}
	.st8{fill:#FFF04A;}
	.st9{fill:#C8E2FD;}
	.st10{fill:#453D83;}
	.st11{fill:#A7D0FC;}
	.st12{fill:#1380E2;}
	.st13{fill:#55A4F9;}
	.st14{fill:#FFF36C;}
	.st15{fill:#FFF5F5;}
</style>
<g>
	<path class="st0" d="M1.6,284.6c-1-9.3-1.6-18.8-1.6-28.4C-0.1,115.1,114.9,0,256.1,0C397.4,0,512,114.6,512,256
		c0,5.5-0.2,11-0.5,16.4c-1,15.5-13.9,27.6-29.5,27.6H18.9C10.1,300,2.6,293.4,1.6,284.6L1.6,284.6z"/>
	<path class="st1" d="M511.6,270.2c-5.8,105.8-75.7,194.5-171.6,227.7h-6.1c-5.3,0-10.3,2.2-13.9,6c-20.5,5.3-41.9,8.1-64,8.1
		c-22.8,0-44.9-3-66-8.6c-5.5-4-12.2-6.2-19-6.2h-1C79.3,464.8,12.2,382.8,1.5,283.9c5.3-2.7,10.9-4.9,16.7-6.5c-0.4-3-0.6-6-0.6-9
		c0-35.9,29.1-65,65-65s65,29.1,65,65c0,18.2-7.5,34.6-19.5,46.4c6.9,9.5,12.2,20.2,15.6,31.7c8-2,16.3-3.1,24.9-3.1
		c34.5,0,64.9,17.3,83.1,43.6c17.5-14.7,40.2-23.6,64.9-23.6c3.1,0,6.1,0.1,9.1,0.4c14.3-20.5,36-35.5,61.3-41
		c-17.7-11.6-29.4-31.6-29.4-54.4c0-35.9,29.1-65,65-65c34.3,0,62.4,26.5,64.8,60.2C496,264.1,504.2,266.5,511.6,270.2L511.6,270.2z
		"/>
	<path class="st2" d="M332.5,410h-5c-4.1,0-7.5,3.4-7.5,7.5v5.5H190v-5.5c0-4.1-3.4-7.5-7.5-7.5h-5c-4.1,0-7.5,3.4-7.5,7.5v79.7
		c6.5,2.3,13.2,4.4,20,6.2V490h130v13.9c6.8-1.7,13.5-3.8,20-6v-80.4C340,413.4,336.6,410,332.5,410L332.5,410z M190,470v-27h130v27
		H190z"/>
	<path class="st2" d="M80.1,162.9l-8.5-8.5c-1.6-1.6-1.6-4.1,0-5.7l8.5-8.5c1.6-1.6,4.1-1.6,5.7,0l8.5,8.5c1.6,1.6,1.6,4.1,0,5.7
		l-8.5,8.5C84.2,164.5,81.7,164.5,80.1,162.9z M412.8,97.2l8.5-8.5c1.6-1.6,1.6-4.1,0-5.7l-8.5-8.5c-1.6-1.6-4.1-1.6-5.7,0l-8.5,8.5
		c-1.6,1.6-1.6,4.1,0,5.7l8.5,8.5C408.7,98.7,411.3,98.7,412.8,97.2z"/>
	<path class="st3" d="M451,282.7v70c0,13.8-11.2,25-25,25h-80c-13.8,0-25-11.2-25-25v-150c0-13.8,11.2-25,25-25
		C404,177.7,451,224.7,451,282.7z M166,177.7c-58,0-105,47-105,105v70c0,13.8,11.2,25,25,25h80c13.8,0,25-11.2,25-25v-150
		C191,188.9,179.8,177.7,166,177.7z"/>
	<path class="st4" d="M96.5,204v173.7H86c-13.8,0-25-11.2-25-25v-70C61,251.3,74.7,223.2,96.5,204z M346,177.7
		c-13.8,0-25,11.2-25,25v150c0,13.8,11.2,25,25,25h59.7V196.3C388.7,184.5,368.2,177.7,346,177.7z"/>
	<path class="st5" d="M206,375v40c0,13.8-11.2,25-25,25s-25-11.2-25-25v-40c0-13.8,11.2-25,25-25S206,361.2,206,375z M331,350
		c-13.8,0-25,11.2-25,25v40c0,13.8,11.2,25,25,25s25-11.2,25-25v-40C356,361.2,344.8,350,331,350z"/>
	<path class="st5" d="M376.4,238.2V380H135.6V238.2h0.1c1.3-70.1,23.6-134.5,60.1-185.7c29.5-41.4,90.9-41.4,120.5,0
		C352.8,103.7,375,168.1,376.4,238.2L376.4,238.2z"/>
	<path class="st6" d="M376.4,238.2v146.1H220V212.1h0.1c0.8-53.7,10.4-104.5,27-150.1c1.3-3.5,58.9-24.1,70.6-7.5
		C353.3,105.4,375,169,376.4,238.2L376.4,238.2L376.4,238.2z"/>
	<path class="st7" d="M317.7,54.5C297.9,59.4,277.3,62,256,62s-41.9-2.6-61.7-7.5c11.7-16.7,24.9-32,39.4-45.7
		c12.5-11.8,32-11.8,44.5,0C292.7,22.5,306,37.8,317.7,54.5z M382,384.3c0,5.5-4.5,10-10,10H140c-5.5,0-10-4.5-10-10s4.5-10,10-10
		h232C377.5,374.3,382,378.8,382,384.3z"/>
	<path class="st8" d="M247.1,61.8c7.3-20.1,16-39.2,25.8-57.1c1.9,1.2,3.7,2.5,5.3,4.1c14.5,13.7,27.7,29,39.4,45.7
		C297.9,59.4,277.3,62,256,62C253,62,250.1,61.9,247.1,61.8z M382,384.3c0-5.5-4.5-10-10-10H218c-5.5,0-10,4.5-10,10s4.5,10,10,10
		h154C377.5,394.3,382,389.9,382,384.3z"/>
	<path class="st9" d="M362.4,255c-1.1,6.8-2.9,13.4-5.3,19.8c-8-2.3-16.8,1-21.1,8.5c-4.3,7.5-2.8,16.8,3.1,22.5
		c-4.4,5.3-9.2,10.1-14.5,14.5c-5.8-5.9-15-7.5-22.5-3.1c-7.5,4.3-10.8,13.1-8.5,21.1c-6.3,2.4-12.9,4.1-19.8,5.3
		c-2-8-9.3-14-17.9-14s-15.9,5.9-17.9,14c-6.8-1.1-13.4-2.9-19.8-5.3c2.3-8-1-16.8-8.5-21.1c-7.5-4.3-16.8-2.8-22.5,3.1
		c-5.3-4.4-10.1-9.2-14.5-14.5c5.9-5.8,7.5-15,3.1-22.5c-4.3-7.5-13.1-10.8-21.1-8.5c-2.4-6.3-4.1-12.9-5.3-19.8c8-2,14-9.3,14-17.9
		s-5.9-15.9-14-17.9c1.1-6.8,2.9-13.4,5.3-19.8c8,2.3,16.8-1,21.1-8.5c4.3-7.5,2.8-16.8-3.1-22.5c4.4-5.3,9.2-10.1,14.5-14.5
		c5.8,5.9,15,7.5,22.5,3.1c7.5-4.3,10.8-13.1,8.5-21.1c6.3-2.4,12.9-4.1,19.8-5.3c2,8,9.3,14,17.9,14c8.7,0,15.9-5.9,17.9-14
		c6.8,1.1,13.4,2.9,19.8,5.3c-2.3,8,1,16.8,8.5,21.1c7.5,4.3,16.8,2.8,22.5-3.1c5.3,4.4,10.1,9.2,14.5,14.5
		c-5.9,5.8-7.5,15-3.1,22.5c4.3,7.5,13.1,10.8,21.1,8.5c2.4,6.3,4.1,12.9,5.3,19.8c-8,2-14,9.3-14,17.9S354.4,253,362.4,255
		L362.4,255z"/>
	<path class="st10" d="M285.3,235.7c0,16.4-13.3,29.7-29.7,29.7s-29.7-13.3-29.7-29.7s13.3-29.7,29.7-29.7S285.3,219.3,285.3,235.7z
		"/>
	<path class="st11" d="M378.9,108.4c-0.4,2.7-1.1,5.2-2.1,7.7c-3.1-0.9-6.5,0.4-8.2,3.3c-1.7,2.9-1.1,6.5,1.2,8.8
		c-1.7,2-3.6,3.9-5.6,5.6c-2.2-2.3-5.8-2.9-8.8-1.2c-2.9,1.7-4.2,5.1-3.3,8.2c-2.5,0.9-5,1.6-7.7,2.1c-0.8-3.1-3.6-5.4-7-5.4
		s-6.2,2.3-7,5.4c-2.7-0.4-5.2-1.1-7.7-2.1c0.9-3.1-0.4-6.5-3.3-8.2c-2.9-1.7-6.5-1.1-8.8,1.2c-2-1.7-3.9-3.6-5.6-5.6
		c2.3-2.2,2.9-5.8,1.2-8.8c-1.7-2.9-5.1-4.2-8.2-3.3c-0.9-2.5-1.6-5-2.1-7.7c3.1-0.8,5.4-3.6,5.4-7s-2.3-6.2-5.4-7
		c0.4-2.7,1.1-5.2,2.1-7.7c3.1,0.9,6.5-0.4,8.2-3.3c1.7-2.9,1.1-6.5-1.2-8.8c1.7-2,3.6-3.9,5.6-5.6c2.2,2.3,5.8,2.9,8.8,1.2
		c2.9-1.7,4.2-5.1,3.3-8.2c2.5-0.9,5-1.6,7.7-2.1c0.8,3.1,3.6,5.4,7,5.4s6.2-2.3,7-5.4c2.7,0.4,5.2,1.1,7.7,2.1
		c-0.9,3.1,0.4,6.5,3.3,8.2c2.9,1.7,6.5,1.1,8.8-1.2c2,1.7,3.9,3.6,5.6,5.6c-2.3,2.2-2.9,5.8-1.2,8.8c1.7,2.9,5.1,4.2,8.2,3.3
		c0.9,2.5,1.6,5,2.1,7.7c-3.1,0.8-5.4,3.6-5.4,7S375.8,107.6,378.9,108.4L378.9,108.4z"/>
	<path class="st5" d="M357.5,101.4c0,11-9,20-20,20s-20-9-20-20s9-20,20-20S357.5,90.4,357.5,101.4z"/>
	<path class="st12" d="M187.9,331.9l-49.5,49.5c-5.9,5.9-15.4,5.9-21.2,0l-7.1-7.1c-5.9-5.9-5.9-15.4,0-21.2l49.5-49.5
		c5.9-5.9,15.4-5.9,21.2,0l7.1,7.1C193.8,316.6,193.8,326.1,187.9,331.9z"/>
	<path class="st13" d="M304.8,282.9c-21.6,21.6-54.2,25.6-79.9,12l-33.1,33.1c-7.7,7.7-20.2,8.2-28.1,0.8
		c-8.3-7.8-8.5-20.8-0.5-28.8l33.5-33.5c-13.6-25.7-9.6-58.3,12-79.9c19.3-19.3,47.4-24.6,71.5-15.8c2.3,0.8,4.3,2.2,6.1,3.9
		c2,2,2,5.1,0,7.1l-23.4,23.4c-0.8,0.8-1.9,1.4-3.1,1.4l-1.4,0.1c-6.3,0.5-12.2,3.2-16.7,7.7c-9.5,9.5-10.1,25.6-0.9,35.3
		c9.7,10.2,25.9,10.4,35.8,0.5l0.3-0.3c4.5-4.5,7.2-10.4,7.7-16.7l0.1-1.5c0.1-1.2,0.6-2.3,1.4-3.1l23.4-23.4c2-2,5.1-2,7.1,0
		c1.7,1.7,3.1,3.8,3.9,6C329.4,235.4,324.2,263.5,304.8,282.9L304.8,282.9z"/>
	<path class="st7" d="M152.3,381.2l-91.9,91.9c-5.9,5.9-15.4,5.9-21.2,0l-20.8-20.8c-5.9-5.9-5.9-15.4,0-21.2l91.9-91.9
		c5.9-5.9,15.4-5.9,21.2,0l20.8,20.8C158.2,365.9,158.2,375.4,152.3,381.2L152.3,381.2z"/>
	<path class="st8" d="M152.3,381.2l-91.9,91.9c-5.9,5.9-15.4,5.9-21.2,0l-4-4c-5.9-5.9-5.9-15.4,0-21.2l91.9-91.9
		c5.9-5.9,15.4-5.9,21.2,0l4,4C158.2,365.9,158.2,375.4,152.3,381.2z"/>
	<path class="st14" d="M167.4,382.1c-2.9,2.9-7.7,2.9-10.6,0l-47.4-47.4c-2.9-2.9-2.9-7.7,0-10.6s7.7-2.9,10.6,0l47.4,47.4
		C170.3,374.5,170.3,379.2,167.4,382.1L167.4,382.1z"/>
	<path class="st7" d="M407.5,174.6l-5-4.9c-1.6-1.6-1.6-4.1,0-5.7l5-4.9c1.6-1.6,4.1-1.6,5.7,0l5,4.9c1.6,1.6,1.6,4.1,0,5.7l-5,4.9
		C411.6,176.1,409.1,176.1,407.5,174.6z"/>
	<path class="st15" d="M117.2,85.8l-4.9-4.9c-1.6-1.6-1.6-4.1,0-5.7l4.9-4.9c1.6-1.6,4.1-1.6,5.7,0l4.9,4.9c1.6,1.6,1.6,4.1,0,5.7
		l-4.9,4.9C121.3,87.3,118.7,87.3,117.2,85.8z"/>
	<path class="st14" d="M430.3,138.4l-5-4.9c-1.6-1.6-1.6-4.1,0-5.7l5-4.9c1.6-1.6,4.1-1.6,5.7,0l5,4.9c1.6,1.6,1.6,4.1,0,5.7l-5,4.9
		C434.4,140,431.9,140,430.3,138.4z"/>
</g>
</svg>
