<?xml version="1.0" encoding="utf-8"?>
<!-- Generator: Adobe Illustrator 24.3.0, SVG Export Plug-In . SVG Version: 6.00 Build 0)  -->
<svg version="1.1" id="Layer_1" xmlns="http://www.w3.org/2000/svg" xmlns:xlink="http://www.w3.org/1999/xlink" x="0px" y="0px"
	 viewBox="0 0 100 86.6" style="enable-background:new 0 0 100 86.6;" xml:space="preserve">
<style type="text/css">
	.st0{fill:#4B92CF;}
	.st1{fill:#FFFFFF;}
</style>
<polygon class="st0" points="75,0 25,0 0,43.3 25,86.6 75,86.6 100,43.3 "/>
<g>
	<path class="st1" d="M23.6,57.9c-0.6,0-0.9-0.3-1-0.8c0-0.3,0.1-0.5,0.4-0.9l8.9-11.3l-8.3-10.6c-0.2-0.3-0.4-0.6-0.4-0.9
		c0-0.5,0.3-0.8,1-0.8h3.8c1.2,0,2.2,0.6,3.1,1.7l4.8,6.1l4.8-6.1c0.9-1.1,1.9-1.7,3.1-1.7h3.8c0.6,0,1,0.3,1,0.8
		c0,0.3-0.1,0.5-0.4,0.9l-8.3,10.6l8.9,11.3c0.2,0.3,0.4,0.6,0.4,0.7s0,0.3-0.1,0.4c-0.1,0.3-0.4,0.5-0.9,0.5h-3.7
		c-1.2,0-2.2-0.6-3.1-1.7l-5.4-6.8l-5.4,6.8c-0.9,1.1-1.9,1.7-3.1,1.7H23.6z"/>
	<path class="st1" d="M51.7,56.3V34.4c0-0.5,0.2-0.8,0.5-1.2s0.7-0.5,1.2-0.5h13.4c7.1,0,10.6,3.3,10.6,9.8c0,6.5-3.5,9.8-10.6,9.8
		h-8.4v4c0,0.5-0.2,0.8-0.5,1.2s-0.7,0.5-1.2,0.5h-3.3c-0.5,0-0.8-0.2-1.2-0.5S51.7,56.7,51.7,56.3z M58.4,47.3h6.4
		c2,0,3.5-0.3,4.5-1s1.5-1.9,1.5-3.8c0-1.9-0.5-3.2-1.5-3.8s-2.5-1-4.5-1h-6.4V47.3z"/>
</g>
</svg>
